<?xml version="1.0" standalone="no"?>
<!DOCTYPE svg PUBLIC "-//W3C//DTD SVG 20010904//EN"
 "http://www.w3.org/TR/2001/REC-SVG-20010904/DTD/svg10.dtd">
<svg version="1.0" xmlns="http://www.w3.org/2000/svg"
 width="96.000000pt" height="96.000000pt" viewBox="0 0 96.000000 96.000000"
 preserveAspectRatio="xMidYMid meet">

<g transform="translate(0.000000,96.000000) scale(0.100000,-0.100000)"
fill="#ffffff" stroke="none">
<path d="M385 911 c-46 -20 -101 -79 -121 -127 -11 -25 -14 -91 -14 -264 l0
-230 50 0 50 0 0 220 c0 245 4 264 63 300 26 16 50 20 130 20 l97 0 0 50 0 50
-107 0 c-83 0 -117 -5 -148 -19z"/>
<path d="M700 865 c0 -7 -8 -19 -17 -24 -16 -9 -16 -12 -3 -20 13 -9 12 -12
-5 -25 -11 -9 -14 -16 -7 -16 6 0 12 -7 12 -15 0 -8 5 -15 10 -15 6 0 13 7 16
15 4 8 10 15 15 15 5 0 9 -7 9 -15 0 -8 6 -15 13 -15 16 0 39 38 31 52 -4 5 0
14 7 19 12 8 12 10 0 18 -7 5 -11 13 -7 19 3 6 1 14 -5 17 -6 4 -13 -2 -16
-14 -7 -27 -33 -28 -33 -1 0 11 -4 20 -10 20 -5 0 -10 -7 -10 -15z m40 -55 c0
-5 -7 -10 -16 -10 -8 0 -12 5 -9 10 3 6 10 10 16 10 5 0 9 -4 9 -10z"/>
<path d="M409 771 l-29 -29 0 -232 0 -231 48 3 47 3 3 208 2 207 80 0 80 0 0
50 0 50 -101 0 c-98 0 -101 -1 -130 -29z"/>
<path d="M510 465 l0 -205 -75 0 -75 0 0 -50 0 -50 96 0 c92 0 97 1 125 29
l29 29 0 226 0 226 -50 0 -50 0 0 -205z"/>
<path d="M640 439 l0 -231 -39 -39 -39 -39 -101 0 -101 0 0 -50 0 -50 103 0
c90 0 109 3 154 25 51 26 86 63 113 120 10 22 15 92 18 263 l4 232 -56 0 -56
0 0 -231z"/>
</g>
</svg>
